<svg xmlns="http://www.w3.org/2000/svg" xmlns:xlink="http://www.w3.org/1999/xlink" width="500" zoomAndPan="magnify" viewBox="0 0 375 374.999991" height="500" preserveAspectRatio="xMidYMid meet" version="1.0"><defs><g/><clipPath id="dbaf37d00e"><path d="M 84.359375 138.546875 L 166.859375 138.546875 L 166.859375 225.546875 L 84.359375 225.546875 Z M 84.359375 138.546875 " clip-rule="nonzero"/></clipPath><clipPath id="bf65f9113f"><path d="M 0.078125 15 L 33 15 L 33 53 L 0.078125 53 Z M 0.078125 15 " clip-rule="nonzero"/></clipPath><clipPath id="95bf8fe616"><rect x="0" width="92" y="0" height="70"/></clipPath><clipPath id="b55cc5cc7b"><rect x="0" width="84" y="0" height="70"/></clipPath></defs><g clip-path="url(#dbaf37d00e)"><path fill="#081735" d="M 106.621094 205.035156 L 106.621094 171.933594 L 125.671875 171.933594 L 125.671875 187.308594 L 149.839844 164.851562 L 181.660156 194.429688 L 181.660156 138.601562 L 84.359375 138.601562 L 84.359375 225.703125 Z M 106.621094 205.035156 " fill-opacity="1" fill-rule="nonzero"/></g><g transform="matrix(1, 0, 0, 1, 112, 170)"><g clip-path="url(#95bf8fe616)"><g clip-path="url(#bf65f9113f)"><g fill="#081735" fill-opacity="1"><g transform="translate(0.0960079, 52.895788)"><g><path d="M 13.171875 0 L 13.171875 -13.171875 L 0.734375 -37.03125 L 8.40625 -37.03125 L 16.609375 -19.953125 L 24.765625 -37.03125 L 32.328125 -37.03125 L 19.953125 -13.171875 L 19.953125 0 Z M 13.171875 0 "/></g></g></g></g><g fill="#081735" fill-opacity="1"><g transform="translate(30.144995, 52.895788)"><g><path d="M 13.28125 0.640625 C 10 0.640625 7.46875 -0.378906 5.6875 -2.421875 C 3.90625 -4.472656 3.015625 -7.472656 3.015625 -11.421875 L 3.015625 -26.234375 L 9.734375 -26.234375 L 9.734375 -12.0625 C 9.734375 -9.800781 10.191406 -8.070312 11.109375 -6.875 C 12.023438 -5.675781 13.472656 -5.078125 15.453125 -5.078125 C 17.316406 -5.078125 18.859375 -5.742188 20.078125 -7.078125 C 21.296875 -8.421875 21.90625 -10.296875 21.90625 -12.703125 L 21.90625 -26.234375 L 28.671875 -26.234375 L 28.671875 0 L 22.703125 0 L 22.171875 -4.4375 C 21.359375 -2.882812 20.179688 -1.648438 18.640625 -0.734375 C 17.109375 0.179688 15.320312 0.640625 13.28125 0.640625 Z M 13.28125 0.640625 "/></g></g></g><g fill="#081735" fill-opacity="1"><g transform="translate(60.775982, 52.895788)"><g><path d="M 3.4375 0 L 3.4375 -38.09375 L 10.203125 -38.09375 L 10.203125 -15.609375 L 19.515625 -26.234375 L 27.5625 -26.234375 L 16.828125 -14.28125 L 29.3125 0 L 20.84375 0 L 10.203125 -13.171875 L 10.203125 0 Z M 3.4375 0 "/></g></g></g></g></g><g transform="matrix(1, 0, 0, 1, 202, 170)"><g clip-path="url(#b55cc5cc7b)"><g fill="#ef3914" fill-opacity="1"><g transform="translate(0.494864, 52.895788)"><g><path d="M 3.4375 0 L 3.4375 -38.09375 L 10.203125 -38.09375 L 10.203125 -15.609375 L 19.515625 -26.234375 L 27.5625 -26.234375 L 16.828125 -14.28125 L 29.3125 0 L 20.84375 0 L 10.203125 -13.171875 L 10.203125 0 Z M 3.4375 0 "/></g></g></g><g fill="#ef3914" fill-opacity="1"><g transform="translate(26.840597, 52.895788)"><g><path d="M 16.03125 0.640625 C 13.488281 0.640625 11.203125 0.0546875 9.171875 -1.109375 C 7.148438 -2.273438 5.546875 -3.890625 4.359375 -5.953125 C 3.179688 -8.015625 2.59375 -10.40625 2.59375 -13.125 C 2.59375 -15.832031 3.191406 -18.21875 4.390625 -20.28125 C 5.585938 -22.351562 7.203125 -23.96875 9.234375 -25.125 C 11.265625 -26.289062 13.546875 -26.875 16.078125 -26.875 C 18.585938 -26.875 20.851562 -26.289062 22.875 -25.125 C 24.90625 -23.96875 26.507812 -22.351562 27.6875 -20.28125 C 28.875 -18.21875 29.46875 -15.832031 29.46875 -13.125 C 29.46875 -10.40625 28.875 -8.015625 27.6875 -5.953125 C 26.507812 -3.890625 24.894531 -2.273438 22.84375 -1.109375 C 20.800781 0.0546875 18.53125 0.640625 16.03125 0.640625 Z M 16.03125 -5.234375 C 17.789062 -5.234375 19.320312 -5.894531 20.625 -7.21875 C 21.9375 -8.539062 22.59375 -10.507812 22.59375 -13.125 C 22.59375 -15.726562 21.9375 -17.691406 20.625 -19.015625 C 19.320312 -20.335938 17.804688 -21 16.078125 -21 C 14.285156 -21 12.742188 -20.335938 11.453125 -19.015625 C 10.160156 -17.691406 9.515625 -15.726562 9.515625 -13.125 C 9.515625 -10.507812 10.160156 -8.539062 11.453125 -7.21875 C 12.742188 -5.894531 14.269531 -5.234375 16.03125 -5.234375 Z M 16.03125 -5.234375 "/></g></g></g><g fill="#ef3914" fill-opacity="1"><g transform="translate(57.365774, 52.895788)"><g><path d="M 14.28125 0.640625 C 11.957031 0.640625 9.910156 0.257812 8.140625 -0.5 C 6.378906 -1.257812 4.96875 -2.304688 3.90625 -3.640625 C 2.851562 -4.984375 2.222656 -6.539062 2.015625 -8.3125 L 8.828125 -8.3125 C 9.046875 -7.28125 9.617188 -6.40625 10.546875 -5.6875 C 11.484375 -4.96875 12.691406 -4.609375 14.171875 -4.609375 C 15.660156 -4.609375 16.75 -4.90625 17.4375 -5.5 C 18.125 -6.101562 18.46875 -6.789062 18.46875 -7.5625 C 18.46875 -8.695312 17.972656 -9.460938 16.984375 -9.859375 C 15.992188 -10.265625 14.617188 -10.664062 12.859375 -11.0625 C 11.722656 -11.300781 10.570312 -11.597656 9.40625 -11.953125 C 8.25 -12.304688 7.1875 -12.753906 6.21875 -13.296875 C 5.25 -13.847656 4.460938 -14.554688 3.859375 -15.421875 C 3.265625 -16.285156 2.96875 -17.351562 2.96875 -18.625 C 2.96875 -20.945312 3.890625 -22.898438 5.734375 -24.484375 C 7.585938 -26.078125 10.191406 -26.875 13.546875 -26.875 C 16.648438 -26.875 19.125 -26.148438 20.96875 -24.703125 C 22.820312 -23.253906 23.925781 -21.265625 24.28125 -18.734375 L 17.875 -18.734375 C 17.488281 -20.671875 16.023438 -21.640625 13.484375 -21.640625 C 12.222656 -21.640625 11.242188 -21.390625 10.546875 -20.890625 C 9.859375 -20.398438 9.515625 -19.785156 9.515625 -19.046875 C 9.515625 -18.265625 10.023438 -17.644531 11.046875 -17.1875 C 12.078125 -16.726562 13.4375 -16.304688 15.125 -15.921875 C 16.957031 -15.503906 18.640625 -15.035156 20.171875 -14.515625 C 21.710938 -14.003906 22.941406 -13.242188 23.859375 -12.234375 C 24.773438 -11.234375 25.234375 -9.800781 25.234375 -7.9375 C 25.273438 -6.3125 24.851562 -4.847656 23.96875 -3.546875 C 23.082031 -2.242188 21.8125 -1.21875 20.15625 -0.46875 C 18.5 0.269531 16.539062 0.640625 14.28125 0.640625 Z M 14.28125 0.640625 "/></g></g></g></g></g><g fill="#081735" fill-opacity="1"><g transform="translate(118.565615, 241.97972)"><g><path d="M 0.890625 0 L 0.890625 -8.40625 L 1.890625 -8.40625 L 6.375 -1.671875 L 6.375 -8.40625 L 7.375 -8.40625 L 7.375 0 L 6.375 0 L 1.890625 -6.734375 L 1.890625 0 Z M 0.890625 0 "/></g></g></g><g fill="#081735" fill-opacity="1"><g transform="translate(126.833628, 241.97972)"><g><path d="M 3.1875 -1.875 C 2.84375 -1.875 2.53125 -1.914062 2.25 -2 L 1.65625 -1.4375 C 1.738281 -1.375 1.847656 -1.320312 1.984375 -1.28125 C 2.117188 -1.238281 2.304688 -1.195312 2.546875 -1.15625 C 2.796875 -1.125 3.144531 -1.085938 3.59375 -1.046875 C 4.394531 -0.984375 4.96875 -0.796875 5.3125 -0.484375 C 5.65625 -0.179688 5.828125 0.222656 5.828125 0.734375 C 5.828125 1.078125 5.734375 1.40625 5.546875 1.71875 C 5.359375 2.03125 5.070312 2.285156 4.6875 2.484375 C 4.300781 2.679688 3.800781 2.78125 3.1875 2.78125 C 2.65625 2.78125 2.179688 2.707031 1.765625 2.5625 C 1.347656 2.425781 1.019531 2.21875 0.78125 1.9375 C 0.550781 1.65625 0.4375 1.296875 0.4375 0.859375 C 0.4375 0.640625 0.492188 0.398438 0.609375 0.140625 C 0.734375 -0.117188 0.960938 -0.363281 1.296875 -0.59375 C 1.117188 -0.664062 0.96875 -0.742188 0.84375 -0.828125 C 0.71875 -0.910156 0.601562 -1.003906 0.5 -1.109375 L 0.5 -1.390625 L 1.53125 -2.40625 C 1.050781 -2.800781 0.8125 -3.328125 0.8125 -3.984375 C 0.8125 -4.378906 0.90625 -4.734375 1.09375 -5.046875 C 1.28125 -5.367188 1.546875 -5.625 1.890625 -5.8125 C 2.242188 -6 2.675781 -6.09375 3.1875 -6.09375 C 3.53125 -6.09375 3.835938 -6.046875 4.109375 -5.953125 L 6.3125 -5.953125 L 6.3125 -5.203125 L 5.203125 -5.140625 C 5.429688 -4.804688 5.546875 -4.421875 5.546875 -3.984375 C 5.546875 -3.585938 5.453125 -3.226562 5.265625 -2.90625 C 5.078125 -2.59375 4.804688 -2.34375 4.453125 -2.15625 C 4.109375 -1.96875 3.6875 -1.875 3.1875 -1.875 Z M 3.1875 -2.703125 C 3.601562 -2.703125 3.9375 -2.8125 4.1875 -3.03125 C 4.445312 -3.25 4.578125 -3.566406 4.578125 -3.984375 C 4.578125 -4.390625 4.445312 -4.703125 4.1875 -4.921875 C 3.9375 -5.140625 3.601562 -5.25 3.1875 -5.25 C 2.75 -5.25 2.40625 -5.140625 2.15625 -4.921875 C 1.90625 -4.703125 1.78125 -4.390625 1.78125 -3.984375 C 1.78125 -3.566406 1.90625 -3.25 2.15625 -3.03125 C 2.40625 -2.8125 2.75 -2.703125 3.1875 -2.703125 Z M 1.421875 0.765625 C 1.421875 1.171875 1.585938 1.46875 1.921875 1.65625 C 2.265625 1.851562 2.6875 1.953125 3.1875 1.953125 C 3.6875 1.953125 4.085938 1.84375 4.390625 1.625 C 4.691406 1.414062 4.84375 1.128906 4.84375 0.765625 C 4.84375 0.515625 4.738281 0.289062 4.53125 0.09375 C 4.320312 -0.09375 3.9375 -0.203125 3.375 -0.234375 C 2.9375 -0.265625 2.554688 -0.300781 2.234375 -0.34375 C 1.898438 -0.164062 1.679688 0.0195312 1.578125 0.21875 C 1.472656 0.425781 1.421875 0.609375 1.421875 0.765625 Z M 1.421875 0.765625 "/></g></g></g><g fill="#081735" fill-opacity="1"><g transform="translate(133.217634, 241.97972)"><g><path d="M 3.5 0.140625 C 2.9375 0.140625 2.429688 0.0078125 1.984375 -0.25 C 1.546875 -0.507812 1.203125 -0.867188 0.953125 -1.328125 C 0.703125 -1.796875 0.578125 -2.34375 0.578125 -2.96875 C 0.578125 -3.59375 0.695312 -4.140625 0.9375 -4.609375 C 1.1875 -5.078125 1.535156 -5.441406 1.984375 -5.703125 C 2.429688 -5.960938 2.945312 -6.09375 3.53125 -6.09375 C 4.101562 -6.09375 4.597656 -5.960938 5.015625 -5.703125 C 5.441406 -5.441406 5.765625 -5.097656 5.984375 -4.671875 C 6.210938 -4.253906 6.328125 -3.800781 6.328125 -3.3125 C 6.328125 -3.226562 6.320312 -3.140625 6.3125 -3.046875 C 6.3125 -2.960938 6.3125 -2.863281 6.3125 -2.75 L 1.578125 -2.75 C 1.597656 -2.289062 1.703125 -1.910156 1.890625 -1.609375 C 2.078125 -1.304688 2.3125 -1.078125 2.59375 -0.921875 C 2.882812 -0.773438 3.1875 -0.703125 3.5 -0.703125 C 3.914062 -0.703125 4.265625 -0.796875 4.546875 -0.984375 C 4.828125 -1.179688 5.03125 -1.445312 5.15625 -1.78125 L 6.15625 -1.78125 C 6 -1.226562 5.691406 -0.769531 5.234375 -0.40625 C 4.785156 -0.0390625 4.207031 0.140625 3.5 0.140625 Z M 3.5 -5.25 C 3.019531 -5.25 2.59375 -5.101562 2.21875 -4.8125 C 1.851562 -4.519531 1.640625 -4.09375 1.578125 -3.53125 L 5.328125 -3.53125 C 5.304688 -4.0625 5.125 -4.476562 4.78125 -4.78125 C 4.4375 -5.09375 4.007812 -5.25 3.5 -5.25 Z M 3.5 -5.25 "/></g></g></g><g fill="#081735" fill-opacity="1"><g transform="translate(140.045648, 241.97972)"><g><path d="M 0.828125 0 L 0.828125 -8.640625 L 1.84375 -8.640625 L 1.84375 -3.4375 L 4.265625 -5.953125 L 5.515625 -5.953125 L 2.875 -3.265625 L 5.84375 0 L 4.5625 0 L 1.84375 -3.078125 L 1.84375 0 Z M 0.828125 0 "/></g></g></g><g fill="#081735" fill-opacity="1"><g transform="translate(145.661652, 241.97972)"><g><path d="M 3.546875 0.140625 C 2.984375 0.140625 2.476562 0.015625 2.03125 -0.234375 C 1.582031 -0.492188 1.226562 -0.859375 0.96875 -1.328125 C 0.707031 -1.796875 0.578125 -2.34375 0.578125 -2.96875 C 0.578125 -3.601562 0.707031 -4.15625 0.96875 -4.625 C 1.238281 -5.09375 1.597656 -5.453125 2.046875 -5.703125 C 2.492188 -5.960938 3 -6.09375 3.5625 -6.09375 C 4.125 -6.09375 4.628906 -5.960938 5.078125 -5.703125 C 5.523438 -5.453125 5.878906 -5.09375 6.140625 -4.625 C 6.398438 -4.15625 6.53125 -3.601562 6.53125 -2.96875 C 6.53125 -2.34375 6.394531 -1.796875 6.125 -1.328125 C 5.863281 -0.859375 5.503906 -0.492188 5.046875 -0.234375 C 4.597656 0.015625 4.097656 0.140625 3.546875 0.140625 Z M 3.546875 -0.71875 C 3.890625 -0.71875 4.207031 -0.800781 4.5 -0.96875 C 4.789062 -1.132812 5.03125 -1.382812 5.21875 -1.71875 C 5.40625 -2.0625 5.5 -2.476562 5.5 -2.96875 C 5.5 -3.46875 5.40625 -3.882812 5.21875 -4.21875 C 5.039062 -4.5625 4.800781 -4.816406 4.5 -4.984375 C 4.207031 -5.148438 3.894531 -5.234375 3.5625 -5.234375 C 3.21875 -5.234375 2.894531 -5.148438 2.59375 -4.984375 C 2.300781 -4.816406 2.0625 -4.5625 1.875 -4.21875 C 1.695312 -3.882812 1.609375 -3.46875 1.609375 -2.96875 C 1.609375 -2.476562 1.695312 -2.0625 1.875 -1.71875 C 2.0625 -1.382812 2.300781 -1.132812 2.59375 -0.96875 C 2.882812 -0.800781 3.203125 -0.71875 3.546875 -0.71875 Z M 3.546875 -0.71875 "/></g></g></g><g fill="#081735" fill-opacity="1"><g transform="translate(152.765663, 241.97972)"><g><path d="M 3.109375 0.140625 C 2.398438 0.140625 1.804688 -0.0351562 1.328125 -0.390625 C 0.859375 -0.753906 0.582031 -1.242188 0.5 -1.859375 L 1.53125 -1.859375 C 1.59375 -1.546875 1.757812 -1.273438 2.03125 -1.046875 C 2.300781 -0.816406 2.664062 -0.703125 3.125 -0.703125 C 3.539062 -0.703125 3.847656 -0.789062 4.046875 -0.96875 C 4.253906 -1.15625 4.359375 -1.375 4.359375 -1.625 C 4.359375 -1.976562 4.226562 -2.210938 3.96875 -2.328125 C 3.707031 -2.453125 3.34375 -2.5625 2.875 -2.65625 C 2.550781 -2.726562 2.226562 -2.820312 1.90625 -2.9375 C 1.582031 -3.0625 1.3125 -3.234375 1.09375 -3.453125 C 0.882812 -3.671875 0.78125 -3.957031 0.78125 -4.3125 C 0.78125 -4.832031 0.972656 -5.257812 1.359375 -5.59375 C 1.742188 -5.925781 2.269531 -6.09375 2.9375 -6.09375 C 3.570312 -6.09375 4.085938 -5.929688 4.484375 -5.609375 C 4.890625 -5.296875 5.128906 -4.847656 5.203125 -4.265625 L 4.203125 -4.265625 C 4.160156 -4.578125 4.03125 -4.816406 3.8125 -4.984375 C 3.59375 -5.160156 3.296875 -5.25 2.921875 -5.25 C 2.566406 -5.25 2.289062 -5.171875 2.09375 -5.015625 C 1.894531 -4.859375 1.796875 -4.660156 1.796875 -4.421875 C 1.796875 -4.179688 1.921875 -3.988281 2.171875 -3.84375 C 2.429688 -3.707031 2.773438 -3.59375 3.203125 -3.5 C 3.566406 -3.425781 3.914062 -3.328125 4.25 -3.203125 C 4.582031 -3.085938 4.851562 -2.914062 5.0625 -2.6875 C 5.28125 -2.46875 5.390625 -2.140625 5.390625 -1.703125 C 5.398438 -1.171875 5.195312 -0.726562 4.78125 -0.375 C 4.363281 -0.03125 3.804688 0.140625 3.109375 0.140625 Z M 3.109375 0.140625 "/></g></g></g><g fill="#081735" fill-opacity="1"><g transform="translate(158.765674, 241.97972)"><g/></g></g><g fill="#081735" fill-opacity="1"><g transform="translate(161.945678, 241.97972)"><g><path d="M 0.828125 0 L 0.828125 -5.953125 L 1.734375 -5.953125 L 1.796875 -4.890625 C 1.992188 -5.265625 2.269531 -5.554688 2.625 -5.765625 C 2.988281 -5.984375 3.398438 -6.09375 3.859375 -6.09375 C 4.554688 -6.09375 5.113281 -5.878906 5.53125 -5.453125 C 5.957031 -5.023438 6.171875 -4.367188 6.171875 -3.484375 L 6.171875 0 L 5.15625 0 L 5.15625 -3.375 C 5.15625 -4.613281 4.644531 -5.234375 3.625 -5.234375 C 3.113281 -5.234375 2.6875 -5.046875 2.34375 -4.671875 C 2.007812 -4.296875 1.84375 -3.765625 1.84375 -3.078125 L 1.84375 0 Z M 0.828125 0 "/></g></g></g><g fill="#081735" fill-opacity="1"><g transform="translate(168.809695, 241.97972)"><g><path d="M 3.1875 -1.875 C 2.84375 -1.875 2.53125 -1.914062 2.25 -2 L 1.65625 -1.4375 C 1.738281 -1.375 1.847656 -1.320312 1.984375 -1.28125 C 2.117188 -1.238281 2.304688 -1.195312 2.546875 -1.15625 C 2.796875 -1.125 3.144531 -1.085938 3.59375 -1.046875 C 4.394531 -0.984375 4.96875 -0.796875 5.3125 -0.484375 C 5.65625 -0.179688 5.828125 0.222656 5.828125 0.734375 C 5.828125 1.078125 5.734375 1.40625 5.546875 1.71875 C 5.359375 2.03125 5.070312 2.285156 4.6875 2.484375 C 4.300781 2.679688 3.800781 2.78125 3.1875 2.78125 C 2.65625 2.78125 2.179688 2.707031 1.765625 2.5625 C 1.347656 2.425781 1.019531 2.21875 0.78125 1.9375 C 0.550781 1.65625 0.4375 1.296875 0.4375 0.859375 C 0.4375 0.640625 0.492188 0.398438 0.609375 0.140625 C 0.734375 -0.117188 0.960938 -0.363281 1.296875 -0.59375 C 1.117188 -0.664062 0.96875 -0.742188 0.84375 -0.828125 C 0.71875 -0.910156 0.601562 -1.003906 0.5 -1.109375 L 0.5 -1.390625 L 1.53125 -2.40625 C 1.050781 -2.800781 0.8125 -3.328125 0.8125 -3.984375 C 0.8125 -4.378906 0.90625 -4.734375 1.09375 -5.046875 C 1.28125 -5.367188 1.546875 -5.625 1.890625 -5.8125 C 2.242188 -6 2.675781 -6.09375 3.1875 -6.09375 C 3.53125 -6.09375 3.835938 -6.046875 4.109375 -5.953125 L 6.3125 -5.953125 L 6.3125 -5.203125 L 5.203125 -5.140625 C 5.429688 -4.804688 5.546875 -4.421875 5.546875 -3.984375 C 5.546875 -3.585938 5.453125 -3.226562 5.265625 -2.90625 C 5.078125 -2.59375 4.804688 -2.34375 4.453125 -2.15625 C 4.109375 -1.96875 3.6875 -1.875 3.1875 -1.875 Z M 3.1875 -2.703125 C 3.601562 -2.703125 3.9375 -2.8125 4.1875 -3.03125 C 4.445312 -3.25 4.578125 -3.566406 4.578125 -3.984375 C 4.578125 -4.390625 4.445312 -4.703125 4.1875 -4.921875 C 3.9375 -5.140625 3.601562 -5.25 3.1875 -5.25 C 2.75 -5.25 2.40625 -5.140625 2.15625 -4.921875 C 1.90625 -4.703125 1.78125 -4.390625 1.78125 -3.984375 C 1.78125 -3.566406 1.90625 -3.25 2.15625 -3.03125 C 2.40625 -2.8125 2.75 -2.703125 3.1875 -2.703125 Z M 1.421875 0.765625 C 1.421875 1.171875 1.585938 1.46875 1.921875 1.65625 C 2.265625 1.851562 2.6875 1.953125 3.1875 1.953125 C 3.6875 1.953125 4.085938 1.84375 4.390625 1.625 C 4.691406 1.414062 4.84375 1.128906 4.84375 0.765625 C 4.84375 0.515625 4.738281 0.289062 4.53125 0.09375 C 4.320312 -0.09375 3.9375 -0.203125 3.375 -0.234375 C 2.9375 -0.265625 2.554688 -0.300781 2.234375 -0.34375 C 1.898438 -0.164062 1.679688 0.0195312 1.578125 0.21875 C 1.472656 0.425781 1.421875 0.609375 1.421875 0.765625 Z M 1.421875 0.765625 "/></g></g></g><g fill="#081735" fill-opacity="1"><g transform="translate(175.433707, 241.97972)"><g><path d="M 3.1875 -1.875 C 2.84375 -1.875 2.53125 -1.914062 2.25 -2 L 1.65625 -1.4375 C 1.738281 -1.375 1.847656 -1.320312 1.984375 -1.28125 C 2.117188 -1.238281 2.304688 -1.195312 2.546875 -1.15625 C 2.796875 -1.125 3.144531 -1.085938 3.59375 -1.046875 C 4.394531 -0.984375 4.96875 -0.796875 5.3125 -0.484375 C 5.65625 -0.179688 5.828125 0.222656 5.828125 0.734375 C 5.828125 1.078125 5.734375 1.40625 5.546875 1.71875 C 5.359375 2.03125 5.070312 2.285156 4.6875 2.484375 C 4.300781 2.679688 3.800781 2.78125 3.1875 2.78125 C 2.65625 2.78125 2.179688 2.707031 1.765625 2.5625 C 1.347656 2.425781 1.019531 2.21875 0.78125 1.9375 C 0.550781 1.65625 0.4375 1.296875 0.4375 0.859375 C 0.4375 0.640625 0.492188 0.398438 0.609375 0.140625 C 0.734375 -0.117188 0.960938 -0.363281 1.296875 -0.59375 C 1.117188 -0.664062 0.96875 -0.742188 0.84375 -0.828125 C 0.71875 -0.910156 0.601562 -1.003906 0.5 -1.109375 L 0.5 -1.390625 L 1.53125 -2.40625 C 1.050781 -2.800781 0.8125 -3.328125 0.8125 -3.984375 C 0.8125 -4.378906 0.90625 -4.734375 1.09375 -5.046875 C 1.28125 -5.367188 1.546875 -5.625 1.890625 -5.8125 C 2.242188 -6 2.675781 -6.09375 3.1875 -6.09375 C 3.53125 -6.09375 3.835938 -6.046875 4.109375 -5.953125 L 6.3125 -5.953125 L 6.3125 -5.203125 L 5.203125 -5.140625 C 5.429688 -4.804688 5.546875 -4.421875 5.546875 -3.984375 C 5.546875 -3.585938 5.453125 -3.226562 5.265625 -2.90625 C 5.078125 -2.59375 4.804688 -2.34375 4.453125 -2.15625 C 4.109375 -1.96875 3.6875 -1.875 3.1875 -1.875 Z M 3.1875 -2.703125 C 3.601562 -2.703125 3.9375 -2.8125 4.1875 -3.03125 C 4.445312 -3.25 4.578125 -3.566406 4.578125 -3.984375 C 4.578125 -4.390625 4.445312 -4.703125 4.1875 -4.921875 C 3.9375 -5.140625 3.601562 -5.25 3.1875 -5.25 C 2.75 -5.25 2.40625 -5.140625 2.15625 -4.921875 C 1.90625 -4.703125 1.78125 -4.390625 1.78125 -3.984375 C 1.78125 -3.566406 1.90625 -3.25 2.15625 -3.03125 C 2.40625 -2.8125 2.75 -2.703125 3.1875 -2.703125 Z M 1.421875 0.765625 C 1.421875 1.171875 1.585938 1.46875 1.921875 1.65625 C 2.265625 1.851562 2.6875 1.953125 3.1875 1.953125 C 3.6875 1.953125 4.085938 1.84375 4.390625 1.625 C 4.691406 1.414062 4.84375 1.128906 4.84375 0.765625 C 4.84375 0.515625 4.738281 0.289062 4.53125 0.09375 C 4.320312 -0.09375 3.9375 -0.203125 3.375 -0.234375 C 2.9375 -0.265625 2.554688 -0.300781 2.234375 -0.34375 C 1.898438 -0.164062 1.679688 0.0195312 1.578125 0.21875 C 1.472656 0.425781 1.421875 0.609375 1.421875 0.765625 Z M 1.421875 0.765625 "/></g></g></g><g fill="#081735" fill-opacity="1"><g transform="translate(182.057718, 241.97972)"><g><path d="M 2.8125 0.140625 C 2.3125 0.140625 1.894531 0.0546875 1.5625 -0.109375 C 1.238281 -0.273438 0.992188 -0.5 0.828125 -0.78125 C 0.671875 -1.0625 0.59375 -1.363281 0.59375 -1.6875 C 0.59375 -2.300781 0.820312 -2.769531 1.28125 -3.09375 C 1.75 -3.425781 2.382812 -3.59375 3.1875 -3.59375 L 4.796875 -3.59375 L 4.796875 -3.65625 C 4.796875 -4.175781 4.660156 -4.570312 4.390625 -4.84375 C 4.117188 -5.113281 3.753906 -5.25 3.296875 -5.25 C 2.910156 -5.25 2.570312 -5.148438 2.28125 -4.953125 C 2 -4.753906 1.820312 -4.46875 1.75 -4.09375 L 0.71875 -4.09375 C 0.757812 -4.519531 0.90625 -4.878906 1.15625 -5.171875 C 1.40625 -5.472656 1.71875 -5.703125 2.09375 -5.859375 C 2.46875 -6.015625 2.867188 -6.09375 3.296875 -6.09375 C 4.128906 -6.09375 4.753906 -5.867188 5.171875 -5.421875 C 5.597656 -4.984375 5.8125 -4.394531 5.8125 -3.65625 L 5.8125 0 L 4.90625 0 L 4.84375 -1.0625 C 4.675781 -0.726562 4.429688 -0.441406 4.109375 -0.203125 C 3.785156 0.0234375 3.351562 0.140625 2.8125 0.140625 Z M 2.96875 -0.703125 C 3.351562 -0.703125 3.679688 -0.800781 3.953125 -1 C 4.234375 -1.207031 4.441406 -1.46875 4.578125 -1.78125 C 4.722656 -2.101562 4.796875 -2.441406 4.796875 -2.796875 L 4.796875 -2.8125 L 3.28125 -2.8125 C 2.6875 -2.8125 2.265625 -2.707031 2.015625 -2.5 C 1.773438 -2.300781 1.65625 -2.046875 1.65625 -1.734375 C 1.65625 -1.421875 1.769531 -1.171875 2 -0.984375 C 2.226562 -0.796875 2.550781 -0.703125 2.96875 -0.703125 Z M 2.96875 -0.703125 "/></g></g></g><g fill="#081735" fill-opacity="1"><g transform="translate(188.549734, 241.97972)"><g><path d="M 0.828125 0 L 0.828125 -8.640625 L 1.84375 -8.640625 L 1.84375 -3.4375 L 4.265625 -5.953125 L 5.515625 -5.953125 L 2.875 -3.265625 L 5.84375 0 L 4.5625 0 L 1.84375 -3.078125 L 1.84375 0 Z M 0.828125 0 "/></g></g></g><g fill="#081735" fill-opacity="1"><g transform="translate(194.597741, 241.97972)"><g/></g></g><g fill="#081735" fill-opacity="1"><g transform="translate(197.777745, 241.97972)"><g><path d="M 0.828125 2.640625 L 0.828125 -5.953125 L 1.734375 -5.953125 L 1.84375 -4.96875 C 2.03125 -5.257812 2.300781 -5.519531 2.65625 -5.75 C 3.007812 -5.976562 3.460938 -6.09375 4.015625 -6.09375 C 4.609375 -6.09375 5.125 -5.957031 5.5625 -5.6875 C 6.007812 -5.414062 6.351562 -5.039062 6.59375 -4.5625 C 6.832031 -4.09375 6.953125 -3.5625 6.953125 -2.96875 C 6.953125 -2.363281 6.832031 -1.828125 6.59375 -1.359375 C 6.351562 -0.890625 6.007812 -0.519531 5.5625 -0.25 C 5.113281 0.0078125 4.597656 0.140625 4.015625 0.140625 C 3.523438 0.140625 3.085938 0.0390625 2.703125 -0.15625 C 2.328125 -0.351562 2.039062 -0.632812 1.84375 -1 L 1.84375 2.640625 Z M 3.90625 -0.734375 C 4.300781 -0.734375 4.648438 -0.828125 4.953125 -1.015625 C 5.253906 -1.203125 5.492188 -1.460938 5.671875 -1.796875 C 5.847656 -2.128906 5.9375 -2.519531 5.9375 -2.96875 C 5.9375 -3.414062 5.847656 -3.804688 5.671875 -4.140625 C 5.492188 -4.484375 5.253906 -4.75 4.953125 -4.9375 C 4.648438 -5.125 4.300781 -5.21875 3.90625 -5.21875 C 3.5 -5.21875 3.144531 -5.125 2.84375 -4.9375 C 2.539062 -4.75 2.300781 -4.484375 2.125 -4.140625 C 1.945312 -3.804688 1.859375 -3.414062 1.859375 -2.96875 C 1.859375 -2.519531 1.945312 -2.128906 2.125 -1.796875 C 2.300781 -1.460938 2.539062 -1.203125 2.84375 -1.015625 C 3.144531 -0.828125 3.5 -0.734375 3.90625 -0.734375 Z M 3.90625 -0.734375 "/></g></g></g><g fill="#081735" fill-opacity="1"><g transform="translate(205.313759, 241.97972)"><g><path d="M 2.8125 0.140625 C 2.3125 0.140625 1.894531 0.0546875 1.5625 -0.109375 C 1.238281 -0.273438 0.992188 -0.5 0.828125 -0.78125 C 0.671875 -1.0625 0.59375 -1.363281 0.59375 -1.6875 C 0.59375 -2.300781 0.820312 -2.769531 1.28125 -3.09375 C 1.75 -3.425781 2.382812 -3.59375 3.1875 -3.59375 L 4.796875 -3.59375 L 4.796875 -3.65625 C 4.796875 -4.175781 4.660156 -4.570312 4.390625 -4.84375 C 4.117188 -5.113281 3.753906 -5.25 3.296875 -5.25 C 2.910156 -5.25 2.570312 -5.148438 2.28125 -4.953125 C 2 -4.753906 1.820312 -4.46875 1.75 -4.09375 L 0.71875 -4.09375 C 0.757812 -4.519531 0.90625 -4.878906 1.15625 -5.171875 C 1.40625 -5.472656 1.71875 -5.703125 2.09375 -5.859375 C 2.46875 -6.015625 2.867188 -6.09375 3.296875 -6.09375 C 4.128906 -6.09375 4.753906 -5.867188 5.171875 -5.421875 C 5.597656 -4.984375 5.8125 -4.394531 5.8125 -3.65625 L 5.8125 0 L 4.90625 0 L 4.84375 -1.0625 C 4.675781 -0.726562 4.429688 -0.441406 4.109375 -0.203125 C 3.785156 0.0234375 3.351562 0.140625 2.8125 0.140625 Z M 2.96875 -0.703125 C 3.351562 -0.703125 3.679688 -0.800781 3.953125 -1 C 4.234375 -1.207031 4.441406 -1.46875 4.578125 -1.78125 C 4.722656 -2.101562 4.796875 -2.441406 4.796875 -2.796875 L 4.796875 -2.8125 L 3.28125 -2.8125 C 2.6875 -2.8125 2.265625 -2.707031 2.015625 -2.5 C 1.773438 -2.300781 1.65625 -2.046875 1.65625 -1.734375 C 1.65625 -1.421875 1.769531 -1.171875 2 -0.984375 C 2.226562 -0.796875 2.550781 -0.703125 2.96875 -0.703125 Z M 2.96875 -0.703125 "/></g></g></g><g fill="#081735" fill-opacity="1"><g transform="translate(211.805775, 241.97972)"><g><path d="M 0.828125 0 L 0.828125 -8.640625 L 1.84375 -8.640625 L 1.84375 -3.4375 L 4.265625 -5.953125 L 5.515625 -5.953125 L 2.875 -3.265625 L 5.84375 0 L 4.5625 0 L 1.84375 -3.078125 L 1.84375 0 Z M 0.828125 0 "/></g></g></g><g fill="#081735" fill-opacity="1"><g transform="translate(217.421779, 241.97972)"><g><path d="M 3.5 0.140625 C 2.9375 0.140625 2.429688 0.0078125 1.984375 -0.25 C 1.546875 -0.507812 1.203125 -0.867188 0.953125 -1.328125 C 0.703125 -1.796875 0.578125 -2.34375 0.578125 -2.96875 C 0.578125 -3.59375 0.695312 -4.140625 0.9375 -4.609375 C 1.1875 -5.078125 1.535156 -5.441406 1.984375 -5.703125 C 2.429688 -5.960938 2.945312 -6.09375 3.53125 -6.09375 C 4.101562 -6.09375 4.597656 -5.960938 5.015625 -5.703125 C 5.441406 -5.441406 5.765625 -5.097656 5.984375 -4.671875 C 6.210938 -4.253906 6.328125 -3.800781 6.328125 -3.3125 C 6.328125 -3.226562 6.320312 -3.140625 6.3125 -3.046875 C 6.3125 -2.960938 6.3125 -2.863281 6.3125 -2.75 L 1.578125 -2.75 C 1.597656 -2.289062 1.703125 -1.910156 1.890625 -1.609375 C 2.078125 -1.304688 2.3125 -1.078125 2.59375 -0.921875 C 2.882812 -0.773438 3.1875 -0.703125 3.5 -0.703125 C 3.914062 -0.703125 4.265625 -0.796875 4.546875 -0.984375 C 4.828125 -1.179688 5.03125 -1.445312 5.15625 -1.78125 L 6.15625 -1.78125 C 6 -1.226562 5.691406 -0.769531 5.234375 -0.40625 C 4.785156 -0.0390625 4.207031 0.140625 3.5 0.140625 Z M 3.5 -5.25 C 3.019531 -5.25 2.59375 -5.101562 2.21875 -4.8125 C 1.851562 -4.519531 1.640625 -4.09375 1.578125 -3.53125 L 5.328125 -3.53125 C 5.304688 -4.0625 5.125 -4.476562 4.78125 -4.78125 C 4.4375 -5.09375 4.007812 -5.25 3.5 -5.25 Z M 3.5 -5.25 "/></g></g></g><g fill="#081735" fill-opacity="1"><g transform="translate(224.249793, 241.97972)"><g/></g></g><g fill="#081735" fill-opacity="1"><g transform="translate(227.429797, 241.97972)"><g><path d="M 0.828125 0 L 0.828125 -5.953125 L 1.734375 -5.953125 L 1.828125 -4.8125 C 2.003906 -5.207031 2.28125 -5.519531 2.65625 -5.75 C 3.039062 -5.976562 3.507812 -6.09375 4.0625 -6.09375 L 4.0625 -5.046875 L 3.78125 -5.046875 C 3.425781 -5.046875 3.097656 -4.984375 2.796875 -4.859375 C 2.503906 -4.734375 2.269531 -4.519531 2.09375 -4.21875 C 1.925781 -3.925781 1.84375 -3.519531 1.84375 -3 L 1.84375 0 Z M 0.828125 0 "/></g></g></g><g fill="#081735" fill-opacity="1"><g transform="translate(231.785807, 241.97972)"><g><path d="M 1.4375 -7.265625 C 1.238281 -7.265625 1.070312 -7.332031 0.9375 -7.46875 C 0.8125 -7.601562 0.75 -7.769531 0.75 -7.96875 C 0.75 -8.15625 0.8125 -8.3125 0.9375 -8.4375 C 1.070312 -8.570312 1.238281 -8.640625 1.4375 -8.640625 C 1.632812 -8.640625 1.800781 -8.570312 1.9375 -8.4375 C 2.070312 -8.3125 2.140625 -8.15625 2.140625 -7.96875 C 2.140625 -7.769531 2.070312 -7.601562 1.9375 -7.46875 C 1.800781 -7.332031 1.632812 -7.265625 1.4375 -7.265625 Z M 0.9375 0 L 0.9375 -5.953125 L 1.9375 -5.953125 L 1.9375 0 Z M 0.9375 0 "/></g></g></g><g fill="#081735" fill-opacity="1"><g transform="translate(234.653811, 241.97972)"><g><path d="M 4.015625 0.140625 C 3.523438 0.140625 3.085938 0.0390625 2.703125 -0.15625 C 2.328125 -0.351562 2.039062 -0.632812 1.84375 -1 L 1.734375 0 L 0.828125 0 L 0.828125 -8.640625 L 1.84375 -8.640625 L 1.84375 -4.96875 C 2.03125 -5.257812 2.300781 -5.519531 2.65625 -5.75 C 3.007812 -5.976562 3.460938 -6.09375 4.015625 -6.09375 C 4.609375 -6.09375 5.125 -5.957031 5.5625 -5.6875 C 6.007812 -5.414062 6.351562 -5.039062 6.59375 -4.5625 C 6.832031 -4.09375 6.953125 -3.5625 6.953125 -2.96875 C 6.953125 -2.363281 6.832031 -1.828125 6.59375 -1.359375 C 6.351562 -0.890625 6.007812 -0.519531 5.5625 -0.25 C 5.113281 0.0078125 4.597656 0.140625 4.015625 0.140625 Z M 3.90625 -0.734375 C 4.300781 -0.734375 4.648438 -0.828125 4.953125 -1.015625 C 5.253906 -1.203125 5.492188 -1.460938 5.671875 -1.796875 C 5.847656 -2.128906 5.9375 -2.519531 5.9375 -2.96875 C 5.9375 -3.414062 5.847656 -3.804688 5.671875 -4.140625 C 5.492188 -4.484375 5.253906 -4.75 4.953125 -4.9375 C 4.648438 -5.125 4.300781 -5.21875 3.90625 -5.21875 C 3.5 -5.21875 3.144531 -5.125 2.84375 -4.9375 C 2.539062 -4.75 2.300781 -4.484375 2.125 -4.140625 C 1.945312 -3.804688 1.859375 -3.414062 1.859375 -2.96875 C 1.859375 -2.519531 1.945312 -2.128906 2.125 -1.796875 C 2.300781 -1.460938 2.539062 -1.203125 2.84375 -1.015625 C 3.144531 -0.828125 3.5 -0.734375 3.90625 -0.734375 Z M 3.90625 -0.734375 "/></g></g></g><g fill="#081735" fill-opacity="1"><g transform="translate(242.189825, 241.97972)"><g><path d="M 3.5 0.140625 C 2.9375 0.140625 2.429688 0.0078125 1.984375 -0.25 C 1.546875 -0.507812 1.203125 -0.867188 0.953125 -1.328125 C 0.703125 -1.796875 0.578125 -2.34375 0.578125 -2.96875 C 0.578125 -3.59375 0.695312 -4.140625 0.9375 -4.609375 C 1.1875 -5.078125 1.535156 -5.441406 1.984375 -5.703125 C 2.429688 -5.960938 2.945312 -6.09375 3.53125 -6.09375 C 4.101562 -6.09375 4.597656 -5.960938 5.015625 -5.703125 C 5.441406 -5.441406 5.765625 -5.097656 5.984375 -4.671875 C 6.210938 -4.253906 6.328125 -3.800781 6.328125 -3.3125 C 6.328125 -3.226562 6.320312 -3.140625 6.3125 -3.046875 C 6.3125 -2.960938 6.3125 -2.863281 6.3125 -2.75 L 1.578125 -2.75 C 1.597656 -2.289062 1.703125 -1.910156 1.890625 -1.609375 C 2.078125 -1.304688 2.3125 -1.078125 2.59375 -0.921875 C 2.882812 -0.773438 3.1875 -0.703125 3.5 -0.703125 C 3.914062 -0.703125 4.265625 -0.796875 4.546875 -0.984375 C 4.828125 -1.179688 5.03125 -1.445312 5.15625 -1.78125 L 6.15625 -1.78125 C 6 -1.226562 5.691406 -0.769531 5.234375 -0.40625 C 4.785156 -0.0390625 4.207031 0.140625 3.5 0.140625 Z M 3.5 -5.25 C 3.019531 -5.25 2.59375 -5.101562 2.21875 -4.8125 C 1.851562 -4.519531 1.640625 -4.09375 1.578125 -3.53125 L 5.328125 -3.53125 C 5.304688 -4.0625 5.125 -4.476562 4.78125 -4.78125 C 4.4375 -5.09375 4.007812 -5.25 3.5 -5.25 Z M 3.5 -5.25 "/></g></g></g><g fill="#081735" fill-opacity="1"><g transform="translate(248.813837, 241.97972)"><g><path d="M 3.1875 0 C 2.632812 0 2.203125 -0.128906 1.890625 -0.390625 C 1.578125 -0.660156 1.421875 -1.140625 1.421875 -1.828125 L 1.421875 -5.09375 L 0.390625 -5.09375 L 0.390625 -5.953125 L 1.421875 -5.953125 L 1.5625 -7.375 L 2.4375 -7.375 L 2.4375 -5.953125 L 4.1875 -5.953125 L 4.1875 -5.09375 L 2.4375 -5.09375 L 2.4375 -1.828125 C 2.4375 -1.453125 2.507812 -1.195312 2.65625 -1.0625 C 2.8125 -0.925781 3.082031 -0.859375 3.46875 -0.859375 L 4.09375 -0.859375 L 4.09375 0 Z M 3.1875 0 "/></g></g></g><g fill="#081735" fill-opacity="1"><g transform="translate(253.457849, 241.97972)"><g><path d="M 1.046875 -2.328125 L 0.921875 -8.40625 L 2.015625 -8.40625 L 1.890625 -2.328125 Z M 1.5 0.0625 C 1.300781 0.0625 1.132812 -0.00390625 1 -0.140625 C 0.863281 -0.273438 0.796875 -0.4375 0.796875 -0.625 C 0.796875 -0.8125 0.863281 -0.972656 1 -1.109375 C 1.132812 -1.242188 1.300781 -1.3125 1.5 -1.3125 C 1.6875 -1.3125 1.847656 -1.242188 1.984375 -1.109375 C 2.117188 -0.972656 2.1875 -0.8125 2.1875 -0.625 C 2.1875 -0.4375 2.117188 -0.273438 1.984375 -0.140625 C 1.847656 -0.00390625 1.6875 0.0625 1.5 0.0625 Z M 1.5 0.0625 "/></g></g></g></svg>