<svg xmlns="http://www.w3.org/2000/svg" xmlns:xlink="http://www.w3.org/1999/xlink" width="500" zoomAndPan="magnify" viewBox="0 0 375 374.999991" height="500" preserveAspectRatio="xMidYMid meet" version="1.0"><defs><clipPath id="f40bb12ef6"><path d="M 89.207031 61.484375 L 285.707031 61.484375 L 285.707031 313.484375 L 89.207031 313.484375 Z M 89.207031 61.484375 " clip-rule="nonzero"/></clipPath></defs><rect x="-37.5" width="450" fill="#ffffff" y="-37.499999" height="449.999989" fill-opacity="1"/><rect x="-37.5" width="450" fill="#091735" y="-37.499999" height="449.999989" fill-opacity="1"/><g clip-path="url(#f40bb12ef6)"><path fill="#ef3914" d="M 136.222656 89.730469 C 149.636719 86.644531 168.1875 87.105469 178.273438 91.214844 C 184.050781 80.300781 199.558594 63.234375 205.847656 64.339844 C 214.4375 72.925781 215.203125 100.207031 215.203125 116.335938 C 227.410156 131.945312 223.71875 163.53125 206.195312 177.074219 C 207.082031 187.632812 223.960938 199.46875 232.996094 215.835938 C 244.636719 236.921875 244.082031 264.160156 242.429688 276.09375 C 249.503906 274.046875 255.746094 268.359375 259.453125 259.175781 C 264.210938 247.402344 259.933594 234.058594 254.285156 217.355469 C 247.671875 197.792969 254.402344 173.648438 260.914062 167.136719 C 265.644531 162.40625 273.941406 155.613281 282.558594 162.613281 C 287.984375 167.023438 285.316406 176.457031 283.070312 178.871094 C 276.839844 185.566406 274.664062 186.808594 272.5 196.359375 C 270.085938 207.003906 275.066406 215.632812 280.492188 233.5625 C 282.226562 239.308594 282.894531 262.496094 272.160156 276.644531 C 259.777344 292.96875 246.753906 295.207031 238.15625 295.726562 C 228.476562 304.539062 225.546875 307.742188 205.949219 307.742188 C 199.230469 307.742188 182.75 309.160156 178.101562 305.511719 C 174.191406 309.421875 170.253906 315.554688 162.164062 312.832031 C 157.601562 311.300781 157.574219 306.71875 157.203125 302.464844 C 155.746094 302.316406 154.757812 302.226562 153.132812 302.226562 C 150.363281 305.28125 143.777344 312.324219 139.289062 312.324219 C 132.414062 312.324219 128.042969 305.949219 132.558594 296.554688 C 123.238281 271.570312 117.128906 219.222656 125.335938 188.101562 C 79.765625 172.453125 85.921875 128.078125 97.859375 112.644531 C 99.269531 93.445312 100.601562 74.3125 110.523438 61.484375 C 119.253906 65.488281 124.230469 72.132812 136.222656 89.730469 Z M 136.222656 89.730469 " fill-opacity="1" fill-rule="nonzero"/></g><path fill="#ffffff" d="M 147.265625 129.417969 C 147.265625 129.9375 147.238281 130.457031 147.1875 130.976562 C 147.136719 131.492188 147.0625 132.007812 146.960938 132.515625 C 146.859375 133.027344 146.734375 133.53125 146.582031 134.027344 C 146.429688 134.527344 146.253906 135.015625 146.054688 135.496094 C 145.855469 135.976562 145.636719 136.449219 145.390625 136.90625 C 145.144531 137.363281 144.878906 137.8125 144.589844 138.242188 C 144.300781 138.675781 143.988281 139.09375 143.660156 139.496094 C 143.328125 139.898438 142.980469 140.28125 142.613281 140.652344 C 142.246094 141.019531 141.859375 141.367188 141.457031 141.699219 C 141.054688 142.027344 140.636719 142.335938 140.207031 142.625 C 139.773438 142.914062 139.328125 143.183594 138.867188 143.425781 C 138.410156 143.671875 137.941406 143.894531 137.460938 144.09375 C 136.976562 144.292969 136.488281 144.46875 135.992188 144.621094 C 135.492188 144.769531 134.988281 144.898438 134.480469 144.996094 C 133.96875 145.097656 133.453125 145.175781 132.9375 145.226562 C 132.417969 145.277344 131.898438 145.304688 131.378906 145.304688 C 130.859375 145.304688 130.339844 145.277344 129.824219 145.226562 C 129.304688 145.175781 128.792969 145.097656 128.28125 144.996094 C 127.769531 144.898438 127.265625 144.769531 126.769531 144.621094 C 126.269531 144.46875 125.78125 144.292969 125.300781 144.09375 C 124.820312 143.894531 124.351562 143.671875 123.890625 143.425781 C 123.433594 143.183594 122.988281 142.914062 122.554688 142.625 C 122.121094 142.335938 121.703125 142.027344 121.300781 141.699219 C 120.898438 141.367188 120.515625 141.019531 120.148438 140.652344 C 119.78125 140.28125 119.429688 139.898438 119.101562 139.496094 C 118.769531 139.09375 118.460938 138.675781 118.171875 138.242188 C 117.882812 137.8125 117.617188 137.363281 117.371094 136.90625 C 117.125 136.449219 116.902344 135.976562 116.703125 135.496094 C 116.503906 135.015625 116.328125 134.527344 116.179688 134.027344 C 116.027344 133.53125 115.902344 133.027344 115.800781 132.515625 C 115.699219 132.007812 115.621094 131.492188 115.570312 130.976562 C 115.519531 130.457031 115.496094 129.9375 115.496094 129.417969 C 115.496094 128.898438 115.519531 128.378906 115.570312 127.859375 C 115.621094 127.34375 115.699219 126.828125 115.800781 126.320312 C 115.902344 125.808594 116.027344 125.304688 116.179688 124.804688 C 116.328125 124.308594 116.503906 123.820312 116.703125 123.339844 C 116.902344 122.859375 117.125 122.386719 117.371094 121.929688 C 117.617188 121.46875 117.882812 121.023438 118.171875 120.59375 C 118.460938 120.160156 118.769531 119.742188 119.101562 119.339844 C 119.429688 118.9375 119.78125 118.554688 120.148438 118.183594 C 120.515625 117.816406 120.898438 117.46875 121.300781 117.136719 C 121.703125 116.808594 122.121094 116.5 122.554688 116.210938 C 122.988281 115.921875 123.433594 115.652344 123.890625 115.40625 C 124.351562 115.164062 124.820312 114.941406 125.300781 114.742188 C 125.78125 114.542969 126.269531 114.367188 126.769531 114.214844 C 127.265625 114.066406 127.769531 113.9375 128.28125 113.835938 C 128.792969 113.734375 129.304688 113.660156 129.824219 113.609375 C 130.339844 113.558594 130.859375 113.53125 131.378906 113.53125 C 131.898438 113.53125 132.417969 113.558594 132.9375 113.609375 C 133.453125 113.660156 133.96875 113.734375 134.480469 113.835938 C 134.988281 113.9375 135.492188 114.066406 135.992188 114.214844 C 136.488281 114.367188 136.976562 114.542969 137.460938 114.742188 C 137.941406 114.941406 138.410156 115.164062 138.867188 115.40625 C 139.328125 115.652344 139.773438 115.921875 140.207031 116.210938 C 140.636719 116.5 141.054688 116.808594 141.457031 117.136719 C 141.859375 117.46875 142.246094 117.816406 142.613281 118.183594 C 142.980469 118.554688 143.328125 118.9375 143.660156 119.339844 C 143.988281 119.742188 144.300781 120.160156 144.589844 120.59375 C 144.878906 121.023438 145.144531 121.46875 145.390625 121.929688 C 145.636719 122.386719 145.855469 122.859375 146.054688 123.339844 C 146.253906 123.820312 146.429688 124.308594 146.582031 124.804688 C 146.734375 125.304688 146.859375 125.808594 146.960938 126.320312 C 147.0625 126.828125 147.136719 127.34375 147.1875 127.859375 C 147.238281 128.378906 147.265625 128.898438 147.265625 129.417969 Z M 147.265625 129.417969 " fill-opacity="1" fill-rule="nonzero"/><path fill="#ef3914" d="M 143.460938 129.417969 C 143.460938 130 143.40625 130.578125 143.292969 131.148438 C 143.179688 131.71875 143.011719 132.273438 142.789062 132.8125 C 142.566406 133.347656 142.292969 133.859375 141.96875 134.34375 C 141.644531 134.828125 141.277344 135.273438 140.867188 135.6875 C 140.453125 136.097656 140.007812 136.464844 139.523438 136.789062 C 139.039062 137.113281 138.527344 137.386719 137.988281 137.609375 C 137.453125 137.832031 136.898438 138 136.328125 138.113281 C 135.753906 138.226562 135.179688 138.285156 134.597656 138.285156 C 134.015625 138.285156 133.4375 138.226562 132.867188 138.113281 C 132.296875 138 131.742188 137.832031 131.203125 137.609375 C 130.664062 137.386719 130.15625 137.113281 129.671875 136.789062 C 129.1875 136.464844 128.738281 136.097656 128.328125 135.6875 C 127.914062 135.273438 127.546875 134.828125 127.226562 134.34375 C 126.902344 133.859375 126.628906 133.347656 126.40625 132.8125 C 126.183594 132.273438 126.015625 131.71875 125.902344 131.148438 C 125.789062 130.578125 125.730469 130 125.730469 129.417969 C 125.730469 128.835938 125.789062 128.257812 125.902344 127.6875 C 126.015625 127.117188 126.183594 126.5625 126.40625 126.023438 C 126.628906 125.488281 126.902344 124.976562 127.226562 124.492188 C 127.546875 124.007812 127.914062 123.558594 128.328125 123.148438 C 128.738281 122.738281 129.1875 122.371094 129.671875 122.046875 C 130.15625 121.722656 130.664062 121.449219 131.203125 121.226562 C 131.742188 121.003906 132.296875 120.835938 132.867188 120.722656 C 133.4375 120.609375 134.015625 120.550781 134.597656 120.550781 C 135.179688 120.550781 135.753906 120.609375 136.328125 120.722656 C 136.898438 120.835938 137.453125 121.003906 137.988281 121.226562 C 138.527344 121.449219 139.039062 121.722656 139.523438 122.046875 C 140.007812 122.371094 140.453125 122.738281 140.867188 123.148438 C 141.277344 123.558594 141.644531 124.007812 141.96875 124.492188 C 142.292969 124.976562 142.566406 125.488281 142.789062 126.023438 C 143.011719 126.5625 143.179688 127.117188 143.292969 127.6875 C 143.40625 128.257812 143.460938 128.835938 143.460938 129.417969 Z M 143.460938 129.417969 " fill-opacity="1" fill-rule="nonzero"/><path fill="#ffffff" d="M 206.367188 130.785156 C 206.367188 131.304688 206.339844 131.824219 206.289062 132.339844 C 206.238281 132.859375 206.164062 133.371094 206.0625 133.882812 C 205.960938 134.394531 205.832031 134.898438 205.683594 135.394531 C 205.53125 135.894531 205.355469 136.382812 205.15625 136.863281 C 204.957031 137.34375 204.734375 137.8125 204.492188 138.273438 C 204.246094 138.730469 203.976562 139.175781 203.6875 139.609375 C 203.398438 140.042969 203.089844 140.460938 202.761719 140.863281 C 202.429688 141.265625 202.082031 141.648438 201.714844 142.015625 C 201.34375 142.382812 200.960938 142.734375 200.558594 143.0625 C 200.15625 143.394531 199.738281 143.703125 199.304688 143.992188 C 198.875 144.28125 198.429688 144.546875 197.96875 144.792969 C 197.511719 145.039062 197.039062 145.261719 196.558594 145.460938 C 196.078125 145.660156 195.589844 145.835938 195.09375 145.984375 C 194.59375 146.136719 194.089844 146.261719 193.578125 146.363281 C 193.070312 146.464844 192.554688 146.542969 192.039062 146.59375 C 191.519531 146.644531 191 146.667969 190.480469 146.667969 C 189.960938 146.667969 189.441406 146.644531 188.925781 146.59375 C 188.40625 146.542969 187.890625 146.464844 187.382812 146.363281 C 186.871094 146.261719 186.367188 146.136719 185.871094 145.984375 C 185.371094 145.835938 184.882812 145.660156 184.402344 145.460938 C 183.921875 145.261719 183.453125 145.039062 182.992188 144.792969 C 182.535156 144.546875 182.089844 144.28125 181.65625 143.992188 C 181.222656 143.703125 180.804688 143.394531 180.402344 143.0625 C 180 142.734375 179.617188 142.382812 179.25 142.015625 C 178.878906 141.648438 178.53125 141.265625 178.203125 140.863281 C 177.871094 140.460938 177.5625 140.042969 177.273438 139.609375 C 176.984375 139.175781 176.714844 138.730469 176.472656 138.273438 C 176.226562 137.8125 176.003906 137.34375 175.804688 136.863281 C 175.605469 136.382812 175.429688 135.894531 175.28125 135.394531 C 175.128906 134.898438 175.003906 134.394531 174.902344 133.882812 C 174.800781 133.371094 174.722656 132.859375 174.671875 132.339844 C 174.621094 131.824219 174.59375 131.304688 174.59375 130.785156 C 174.59375 130.265625 174.621094 129.746094 174.671875 129.226562 C 174.722656 128.710938 174.800781 128.195312 174.902344 127.683594 C 175.003906 127.175781 175.128906 126.671875 175.28125 126.171875 C 175.429688 125.675781 175.605469 125.1875 175.804688 124.703125 C 176.003906 124.222656 176.226562 123.753906 176.472656 123.296875 C 176.714844 122.835938 176.984375 122.390625 177.273438 121.957031 C 177.5625 121.527344 177.871094 121.109375 178.203125 120.707031 C 178.53125 120.304688 178.878906 119.917969 179.25 119.550781 C 179.617188 119.183594 180 118.835938 180.402344 118.503906 C 180.804688 118.175781 181.222656 117.863281 181.65625 117.574219 C 182.089844 117.285156 182.535156 117.019531 182.992188 116.773438 C 183.453125 116.527344 183.921875 116.308594 184.402344 116.109375 C 184.882812 115.910156 185.371094 115.734375 185.871094 115.582031 C 186.367188 115.433594 186.871094 115.304688 187.382812 115.203125 C 187.890625 115.101562 188.40625 115.027344 188.925781 114.976562 C 189.441406 114.925781 189.960938 114.898438 190.480469 114.898438 C 191 114.898438 191.519531 114.925781 192.039062 114.976562 C 192.554688 115.027344 193.070312 115.101562 193.578125 115.203125 C 194.089844 115.304688 194.59375 115.433594 195.09375 115.582031 C 195.589844 115.734375 196.078125 115.910156 196.558594 116.109375 C 197.039062 116.308594 197.511719 116.527344 197.96875 116.773438 C 198.429688 117.019531 198.875 117.285156 199.304688 117.574219 C 199.738281 117.863281 200.15625 118.175781 200.558594 118.503906 C 200.960938 118.835938 201.34375 119.183594 201.714844 119.550781 C 202.082031 119.917969 202.429688 120.304688 202.761719 120.707031 C 203.089844 121.109375 203.398438 121.527344 203.6875 121.957031 C 203.976562 122.390625 204.246094 122.835938 204.492188 123.296875 C 204.734375 123.753906 204.957031 124.222656 205.15625 124.703125 C 205.355469 125.1875 205.53125 125.675781 205.683594 126.171875 C 205.832031 126.671875 205.960938 127.175781 206.0625 127.683594 C 206.164062 128.195312 206.238281 128.710938 206.289062 129.226562 C 206.339844 129.746094 206.367188 130.265625 206.367188 130.785156 Z M 206.367188 130.785156 " fill-opacity="1" fill-rule="nonzero"/><path fill="#ef3914" d="M 196.066406 129.417969 C 196.066406 130 196.007812 130.578125 195.894531 131.148438 C 195.78125 131.71875 195.613281 132.273438 195.390625 132.8125 C 195.167969 133.347656 194.894531 133.859375 194.570312 134.34375 C 194.246094 134.828125 193.878906 135.273438 193.46875 135.6875 C 193.058594 136.097656 192.609375 136.464844 192.125 136.789062 C 191.640625 137.113281 191.128906 137.386719 190.59375 137.609375 C 190.054688 137.832031 189.5 138 188.929688 138.113281 C 188.359375 138.226562 187.78125 138.285156 187.199219 138.285156 C 186.617188 138.285156 186.039062 138.226562 185.46875 138.113281 C 184.898438 138 184.34375 137.832031 183.804688 137.609375 C 183.269531 137.386719 182.757812 137.113281 182.273438 136.789062 C 181.789062 136.464844 181.339844 136.097656 180.929688 135.6875 C 180.519531 135.273438 180.152344 134.828125 179.828125 134.34375 C 179.503906 133.859375 179.230469 133.347656 179.007812 132.8125 C 178.785156 132.273438 178.617188 131.71875 178.503906 131.148438 C 178.390625 130.578125 178.332031 130 178.332031 129.417969 C 178.332031 128.835938 178.390625 128.257812 178.503906 127.6875 C 178.617188 127.117188 178.785156 126.5625 179.007812 126.023438 C 179.230469 125.488281 179.503906 124.976562 179.828125 124.492188 C 180.152344 124.007812 180.519531 123.558594 180.929688 123.148438 C 181.339844 122.738281 181.789062 122.371094 182.273438 122.046875 C 182.757812 121.722656 183.269531 121.449219 183.804688 121.226562 C 184.34375 121.003906 184.898438 120.835938 185.46875 120.722656 C 186.039062 120.609375 186.617188 120.550781 187.199219 120.550781 C 187.78125 120.550781 188.359375 120.609375 188.929688 120.722656 C 189.5 120.835938 190.054688 121.003906 190.59375 121.226562 C 191.128906 121.449219 191.640625 121.722656 192.125 122.046875 C 192.609375 122.371094 193.058594 122.738281 193.46875 123.148438 C 193.878906 123.558594 194.246094 124.007812 194.570312 124.492188 C 194.894531 124.976562 195.167969 125.488281 195.390625 126.023438 C 195.613281 126.5625 195.78125 127.117188 195.894531 127.6875 C 196.007812 128.257812 196.066406 128.835938 196.066406 129.417969 Z M 196.066406 129.417969 " fill-opacity="1" fill-rule="nonzero"/><path fill="#ffffff" d="M 160.792969 142.367188 L 164.707031 137.523438 C 164.90625 137.28125 164.730469 136.917969 164.417969 136.917969 L 156.585938 136.917969 C 156.273438 136.917969 156.097656 137.28125 156.296875 137.523438 L 160.210938 142.367188 C 160.359375 142.550781 160.640625 142.550781 160.792969 142.367188 Z M 160.792969 142.367188 " fill-opacity="1" fill-rule="nonzero"/></svg>